<mxfile host="app.diagrams.net" modified="2024-06-17T10:06:59.920Z" agent="Mozilla/5.0 (Windows NT 10.0; Win64; x64) AppleWebKit/537.36 (KHTML, like Gecko) Chrome/124.0.0.0 Safari/537.36" version="24.0.7" etag="ViAf_swwOqFTysqBAI5W" type="github">
  <diagram name="Page-1" id="cWuuQYQZYm9ZWQwMvc-e">
    <mxGraphModel>
      <root>
        <mxCell id="0" />
        <mxCell id="1" parent="0" />
      </root>
    </mxGraphModel>
  </diagram>
</mxfile>
